<svg width="824" height="520" viewBox="0 0 824 520" fill="none" xmlns="http://www.w3.org/2000/svg">
<path fill-rule="evenodd" clip-rule="evenodd" d="M272.282 506.267C282.204 523.507 307.081 523.507 317.003 506.267L411.68 341.755L216.099 0.8032H563.586C563.487 0.802118 563.387 0.801575 563.287 0.801575H25.9976C6.15332 0.801575 -6.26121 22.2699 3.63712 39.4693L272.282 506.267Z" fill="#A284F7"/>
<path fill-rule="evenodd" clip-rule="evenodd" d="M506.998 506.267C516.92 523.507 541.796 523.507 551.719 506.267L820.363 39.469C830.262 22.2696 817.847 0.801331 798.003 0.801331H260.713C260.612 0.801331 260.51 0.801894 260.409 0.803017H608.364L412.552 342.157L506.998 506.267Z" fill="#6432F2"/>
<ellipse cx="412.231" cy="116.924" rx="64.3058" ry="64.5119" fill="#000211"/>
</svg>
