<?xml version="1.0" standalone="no"?>
<!DOCTYPE svg PUBLIC "-//W3C//DTD SVG 20010904//EN"
 "http://www.w3.org/TR/2001/REC-SVG-20010904/DTD/svg10.dtd">
<svg version="1.0" xmlns="http://www.w3.org/2000/svg"
 width="1360.000000pt" height="1360.000000pt" viewBox="0 0 1360.000000 1360.000000"
 preserveAspectRatio="xMidYMid meet">
<metadata>
Created by potrace 1.14, written by Peter Selinger 2001-2017
</metadata>
<g transform="translate(0.000000,1360.000000) scale(0.100000,-0.100000)"
fill="#000000" stroke="none">
<path d="M1140 13594 c-156 -24 -244 -48 -366 -99 -79 -34 -255 -140 -309
-187 -198 -172 -332 -373 -405 -606 -63 -202 -58 272 -57 -5922 1 -3116 5
-5674 8 -5685 4 -11 10 -40 15 -65 4 -25 8 -47 9 -50 1 -3 5 -18 9 -35 4 -16
10 -37 12 -45 3 -8 5 -15 4 -15 -5 0 69 -165 100 -223 157 -291 456 -527 780
-616 171 -48 -150 -45 5890 -43 3110 2 5666 5 5680 9 14 3 42 9 62 13 160 28
368 121 510 228 223 168 377 385 458 645 63 202 58 -272 56 5922 0 3116 -5
5679 -9 5695 -4 17 -10 44 -13 60 -13 73 -68 231 -106 307 -188 375 -523 626
-928 698 -101 18 -298 18 -5740 18 -3099 0 -5646 -2 -5660 -4z"/>
</g>
</svg>
